<mxfile host="app.diagrams.net" modified="2022-12-13T17:06:57.050Z" agent="5.0 (Windows NT 10.0; Win64; x64) AppleWebKit/537.36 (KHTML, like Gecko) Chrome/108.0.0.0 Safari/537.36" etag="0s_rKcysU6dg1CGxoCAY" version="20.6.2" type="github">
  <diagram name="Page-1" id="38b20595-45e3-9b7f-d5ca-b57f44c5b66d">
    <mxGraphModel dx="15" dy="732" grid="1" gridSize="10" guides="1" tooltips="1" connect="1" arrows="1" fold="1" page="1" pageScale="1" pageWidth="1100" pageHeight="850" background="none" math="0" shadow="0">
      <root>
        <mxCell id="0" />
        <mxCell id="1" parent="0" />
        <mxCell id="48ef80bc37b76060-133" value="" style="verticalLabelPosition=bottom;html=1;verticalAlign=top;align=center;strokeWidth=1;shape=mxgraph.floorplan.wallCorner;fillColor=#000000;direction=south;rounded=0;shadow=0;comic=0;fontFamily=Verdana;fontSize=12;" parent="1" vertex="1">
          <mxGeometry x="1920" y="160" width="41" height="10" as="geometry" />
        </mxCell>
        <mxCell id="48ef80bc37b76060-134" value="" style="verticalLabelPosition=bottom;html=1;verticalAlign=top;align=center;strokeWidth=1;shape=mxgraph.floorplan.wallCorner;fillColor=#000000;direction=west;rounded=0;shadow=0;comic=0;fontFamily=Verdana;fontSize=12;" parent="1" vertex="1">
          <mxGeometry x="1920" y="550" width="41" height="10" as="geometry" />
        </mxCell>
        <mxCell id="48ef80bc37b76060-135" value="" style="verticalLabelPosition=bottom;html=1;verticalAlign=top;align=center;strokeWidth=1;shape=mxgraph.floorplan.wallCorner;fillColor=#000000;direction=north;rounded=0;shadow=0;comic=0;fontFamily=Verdana;fontSize=12;" parent="1" vertex="1">
          <mxGeometry x="1560" y="162.5" width="10" height="397.5" as="geometry" />
        </mxCell>
        <mxCell id="48ef80bc37b76060-373" value="" style="verticalLabelPosition=bottom;html=1;verticalAlign=top;align=center;strokeWidth=1;shape=mxgraph.floorplan.wall;fillColor=#000000;rounded=0;shadow=0;comic=0;fontFamily=Verdana;fontSize=12;" parent="1" vertex="1">
          <mxGeometry x="1560" y="162.5" width="280" height="10" as="geometry" />
        </mxCell>
        <mxCell id="48ef80bc37b76060-397" value="" style="verticalLabelPosition=bottom;html=1;verticalAlign=top;align=center;strokeWidth=1;shape=mxgraph.floorplan.doorRight;rounded=0;shadow=0;comic=0;fontFamily=Verdana;fontSize=12;" parent="1" vertex="1">
          <mxGeometry x="1840" y="162.5" width="80" height="85" as="geometry" />
        </mxCell>
        <mxCell id="EPCD5kT5webkioDT2sl7-1" value="" style="verticalLabelPosition=bottom;html=1;verticalAlign=top;align=center;strokeWidth=1;shape=mxgraph.floorplan.wallCorner;fillColor=#000000;direction=north;rounded=0;shadow=0;comic=0;fontFamily=Verdana;fontSize=12;" vertex="1" parent="1">
          <mxGeometry x="2000" y="210" width="10" height="300" as="geometry" />
        </mxCell>
        <mxCell id="EPCD5kT5webkioDT2sl7-2" value="" style="verticalLabelPosition=bottom;html=1;verticalAlign=top;align=center;shape=mxgraph.floorplan.wall;fillColor=strokeColor;" vertex="1" parent="1">
          <mxGeometry x="1960" y="510" width="50" height="10" as="geometry" />
        </mxCell>
        <mxCell id="EPCD5kT5webkioDT2sl7-3" value="" style="verticalLabelPosition=bottom;html=1;verticalAlign=top;align=center;shape=mxgraph.floorplan.wall;fillColor=strokeColor;" vertex="1" parent="1">
          <mxGeometry x="1960" y="200" width="50" height="10" as="geometry" />
        </mxCell>
        <mxCell id="EPCD5kT5webkioDT2sl7-5" value="" style="verticalLabelPosition=bottom;html=1;verticalAlign=top;align=center;shape=mxgraph.floorplan.wall;fillColor=strokeColor;direction=south;" vertex="1" parent="1">
          <mxGeometry x="1960" y="510" width="10" height="50" as="geometry" />
        </mxCell>
        <mxCell id="EPCD5kT5webkioDT2sl7-6" value="" style="verticalLabelPosition=bottom;html=1;verticalAlign=top;align=center;shape=mxgraph.floorplan.wall;fillColor=strokeColor;direction=south;" vertex="1" parent="1">
          <mxGeometry x="1960" y="160" width="10" height="40" as="geometry" />
        </mxCell>
        <mxCell id="EPCD5kT5webkioDT2sl7-7" value="" style="verticalLabelPosition=bottom;html=1;verticalAlign=top;align=center;strokeWidth=1;shape=mxgraph.floorplan.doorRight;rounded=0;shadow=0;comic=0;fontFamily=Verdana;fontSize=12;rotation=-180;" vertex="1" parent="1">
          <mxGeometry x="1840" y="472.5" width="80" height="85" as="geometry" />
        </mxCell>
        <mxCell id="EPCD5kT5webkioDT2sl7-8" value="" style="verticalLabelPosition=bottom;html=1;verticalAlign=top;align=center;shape=mxgraph.floorplan.wall;fillColor=strokeColor;" vertex="1" parent="1">
          <mxGeometry x="1560" y="550" width="280" height="10" as="geometry" />
        </mxCell>
        <mxCell id="EPCD5kT5webkioDT2sl7-9" value="" style="strokeColor=none;shadow=0;strokeWidth=1;rounded=0;absoluteArcSize=1;arcSize=2;labelPosition=center;verticalLabelPosition=middle;align=center;verticalAlign=bottom;spacingLeft=0;fontColor=#999999;fontSize=12;whiteSpace=wrap;spacingBottom=2;fillColor=none;" vertex="1" parent="1">
          <mxGeometry x="1690" y="162.5" width="60" height="65" as="geometry" />
        </mxCell>
        <mxCell id="EPCD5kT5webkioDT2sl7-10" value="" style="sketch=0;dashed=0;connectable=0;html=1;fillColor=#757575;strokeColor=none;shape=mxgraph.gcp2.speaker;part=1;" vertex="1" parent="EPCD5kT5webkioDT2sl7-9">
          <mxGeometry x="0.5" width="35" height="50" relative="1" as="geometry">
            <mxPoint x="-17.5" y="10" as="offset" />
          </mxGeometry>
        </mxCell>
        <mxCell id="EPCD5kT5webkioDT2sl7-11" value="" style="strokeColor=none;shadow=0;strokeWidth=1;rounded=0;absoluteArcSize=1;arcSize=2;labelPosition=center;verticalLabelPosition=middle;align=center;verticalAlign=bottom;spacingLeft=0;fontColor=#999999;fontSize=12;whiteSpace=wrap;spacingBottom=2;fillColor=none;rotation=-90;" vertex="1" parent="1">
          <mxGeometry x="1560" y="327.5" width="60" height="65" as="geometry" />
        </mxCell>
        <mxCell id="EPCD5kT5webkioDT2sl7-12" value="" style="sketch=0;dashed=0;connectable=0;html=1;fillColor=#757575;strokeColor=none;shape=mxgraph.gcp2.speaker;part=1;rotation=-90;" vertex="1" parent="EPCD5kT5webkioDT2sl7-11">
          <mxGeometry x="0.5" width="35" height="50" relative="1" as="geometry">
            <mxPoint x="-17.5" y="10" as="offset" />
          </mxGeometry>
        </mxCell>
        <mxCell id="EPCD5kT5webkioDT2sl7-13" value="" style="strokeColor=none;shadow=0;strokeWidth=1;rounded=0;absoluteArcSize=1;arcSize=2;labelPosition=center;verticalLabelPosition=middle;align=center;verticalAlign=bottom;spacingLeft=0;fontColor=#999999;fontSize=12;whiteSpace=wrap;spacingBottom=2;fillColor=none;rotation=-180;" vertex="1" parent="1">
          <mxGeometry x="1690" y="495" width="60" height="65" as="geometry" />
        </mxCell>
        <mxCell id="EPCD5kT5webkioDT2sl7-14" value="" style="sketch=0;dashed=0;connectable=0;html=1;fillColor=#757575;strokeColor=none;shape=mxgraph.gcp2.speaker;part=1;rotation=-180;" vertex="1" parent="EPCD5kT5webkioDT2sl7-13">
          <mxGeometry x="0.5" width="35" height="50" relative="1" as="geometry">
            <mxPoint x="-17.5" y="10" as="offset" />
          </mxGeometry>
        </mxCell>
        <mxCell id="EPCD5kT5webkioDT2sl7-15" value="" style="strokeColor=none;shadow=0;strokeWidth=1;rounded=0;absoluteArcSize=1;arcSize=2;labelPosition=center;verticalLabelPosition=middle;align=center;verticalAlign=bottom;spacingLeft=0;fontColor=#999999;fontSize=12;whiteSpace=wrap;spacingBottom=2;fillColor=none;rotation=90;" vertex="1" parent="1">
          <mxGeometry x="1940" y="455" width="60" height="65" as="geometry" />
        </mxCell>
        <mxCell id="EPCD5kT5webkioDT2sl7-16" value="" style="sketch=0;dashed=0;connectable=0;html=1;fillColor=#757575;strokeColor=none;shape=mxgraph.gcp2.speaker;part=1;rotation=90;" vertex="1" parent="EPCD5kT5webkioDT2sl7-15">
          <mxGeometry x="0.5" width="35" height="50" relative="1" as="geometry">
            <mxPoint x="-17.5" y="10" as="offset" />
          </mxGeometry>
        </mxCell>
        <mxCell id="EPCD5kT5webkioDT2sl7-17" value="" style="strokeColor=none;shadow=0;strokeWidth=1;rounded=0;absoluteArcSize=1;arcSize=2;labelPosition=center;verticalLabelPosition=middle;align=center;verticalAlign=bottom;spacingLeft=0;fontColor=#999999;fontSize=12;whiteSpace=wrap;spacingBottom=2;fillColor=none;rotation=90;" vertex="1" parent="1">
          <mxGeometry x="1940" y="200" width="60" height="65" as="geometry" />
        </mxCell>
        <mxCell id="EPCD5kT5webkioDT2sl7-18" value="" style="sketch=0;dashed=0;connectable=0;html=1;fillColor=#757575;strokeColor=none;shape=mxgraph.gcp2.speaker;part=1;rotation=90;" vertex="1" parent="EPCD5kT5webkioDT2sl7-17">
          <mxGeometry x="0.5" width="35" height="50" relative="1" as="geometry">
            <mxPoint x="-17.5" y="10" as="offset" />
          </mxGeometry>
        </mxCell>
        <mxCell id="EPCD5kT5webkioDT2sl7-19" value="" style="strokeColor=none;shadow=0;strokeWidth=1;rounded=0;absoluteArcSize=1;arcSize=2;labelPosition=center;verticalLabelPosition=middle;align=center;verticalAlign=bottom;spacingLeft=0;fontColor=#999999;fontSize=12;whiteSpace=wrap;spacingBottom=2;fillColor=none;rotation=90;" vertex="1" parent="1">
          <mxGeometry x="1940" y="328.75" width="60" height="65" as="geometry" />
        </mxCell>
        <mxCell id="EPCD5kT5webkioDT2sl7-20" value="" style="sketch=0;dashed=0;connectable=0;html=1;fillColor=#757575;strokeColor=none;shape=mxgraph.gcp2.speaker;part=1;rotation=90;" vertex="1" parent="EPCD5kT5webkioDT2sl7-19">
          <mxGeometry x="0.5" width="35" height="50" relative="1" as="geometry">
            <mxPoint x="-17.5" y="10" as="offset" />
          </mxGeometry>
        </mxCell>
        <mxCell id="EPCD5kT5webkioDT2sl7-26" value="" style="group;movable=1;resizable=1;rotatable=1;deletable=1;editable=1;connectable=1;" vertex="1" connectable="0" parent="1">
          <mxGeometry x="1940" y="277.5" width="50" height="50" as="geometry" />
        </mxCell>
        <mxCell id="EPCD5kT5webkioDT2sl7-23" value="" style="rounded=1;whiteSpace=wrap;html=1;shadow=0;fillColor=#757575;strokeColor=none;movable=0;resizable=0;rotatable=0;deletable=0;editable=0;connectable=0;" vertex="1" parent="EPCD5kT5webkioDT2sl7-26">
          <mxGeometry width="50" height="50" as="geometry" />
        </mxCell>
        <mxCell id="EPCD5kT5webkioDT2sl7-24" value="" style="ellipse;whiteSpace=wrap;html=1;aspect=fixed;rounded=0;shadow=0;strokeColor=none;movable=1;resizable=1;rotatable=1;deletable=1;editable=1;connectable=1;" vertex="1" parent="EPCD5kT5webkioDT2sl7-26">
          <mxGeometry x="4.58" y="4.58" width="40.84" height="40.84" as="geometry" />
        </mxCell>
        <mxCell id="EPCD5kT5webkioDT2sl7-25" value="" style="ellipse;whiteSpace=wrap;html=1;aspect=fixed;rounded=0;shadow=0;fillColor=#757575;strokeColor=none;movable=1;resizable=1;rotatable=1;deletable=1;editable=1;connectable=1;" vertex="1" parent="EPCD5kT5webkioDT2sl7-26">
          <mxGeometry x="11.15" y="11.15" width="27.69" height="27.69" as="geometry" />
        </mxCell>
        <mxCell id="EPCD5kT5webkioDT2sl7-29" value="" style="group;movable=1;resizable=1;rotatable=1;deletable=1;editable=1;connectable=1;" vertex="1" connectable="0" parent="1">
          <mxGeometry x="1770" y="172.5" width="50" height="50" as="geometry" />
        </mxCell>
        <mxCell id="EPCD5kT5webkioDT2sl7-30" value="" style="rounded=1;whiteSpace=wrap;html=1;shadow=0;fillColor=#757575;strokeColor=none;movable=0;resizable=0;rotatable=0;deletable=0;editable=0;connectable=0;" vertex="1" parent="EPCD5kT5webkioDT2sl7-29">
          <mxGeometry width="50" height="50" as="geometry" />
        </mxCell>
        <mxCell id="EPCD5kT5webkioDT2sl7-31" value="" style="ellipse;whiteSpace=wrap;html=1;aspect=fixed;rounded=0;shadow=0;strokeColor=none;movable=1;resizable=1;rotatable=1;deletable=1;editable=1;connectable=1;" vertex="1" parent="EPCD5kT5webkioDT2sl7-29">
          <mxGeometry x="4.58" y="4.58" width="40.84" height="40.84" as="geometry" />
        </mxCell>
        <mxCell id="EPCD5kT5webkioDT2sl7-32" value="" style="ellipse;whiteSpace=wrap;html=1;aspect=fixed;rounded=0;shadow=0;fillColor=#757575;strokeColor=none;movable=1;resizable=1;rotatable=1;deletable=1;editable=1;connectable=1;" vertex="1" parent="EPCD5kT5webkioDT2sl7-29">
          <mxGeometry x="11.15" y="11.15" width="27.69" height="27.69" as="geometry" />
        </mxCell>
        <mxCell id="EPCD5kT5webkioDT2sl7-37" value="" style="group;movable=1;resizable=1;rotatable=1;deletable=1;editable=1;connectable=1;" vertex="1" connectable="0" parent="1">
          <mxGeometry x="1620" y="335" width="50" height="50" as="geometry" />
        </mxCell>
        <mxCell id="EPCD5kT5webkioDT2sl7-38" value="" style="rounded=1;whiteSpace=wrap;html=1;shadow=0;fillColor=#757575;strokeColor=none;movable=0;resizable=0;rotatable=0;deletable=0;editable=0;connectable=0;" vertex="1" parent="EPCD5kT5webkioDT2sl7-37">
          <mxGeometry width="50" height="50" as="geometry" />
        </mxCell>
        <mxCell id="EPCD5kT5webkioDT2sl7-39" value="" style="ellipse;whiteSpace=wrap;html=1;aspect=fixed;rounded=0;shadow=0;strokeColor=none;movable=1;resizable=1;rotatable=1;deletable=1;editable=1;connectable=1;" vertex="1" parent="EPCD5kT5webkioDT2sl7-37">
          <mxGeometry x="4.58" y="4.58" width="40.84" height="40.84" as="geometry" />
        </mxCell>
        <mxCell id="EPCD5kT5webkioDT2sl7-40" value="" style="ellipse;whiteSpace=wrap;html=1;aspect=fixed;rounded=0;shadow=0;fillColor=#757575;strokeColor=none;movable=1;resizable=1;rotatable=1;deletable=1;editable=1;connectable=1;" vertex="1" parent="EPCD5kT5webkioDT2sl7-37">
          <mxGeometry x="11.15" y="11.15" width="27.69" height="27.69" as="geometry" />
        </mxCell>
        <mxCell id="EPCD5kT5webkioDT2sl7-41" value="" style="group;movable=1;resizable=1;rotatable=1;deletable=1;editable=1;connectable=1;" vertex="1" connectable="0" parent="1">
          <mxGeometry x="1770" y="500" width="50" height="50" as="geometry" />
        </mxCell>
        <mxCell id="EPCD5kT5webkioDT2sl7-42" value="" style="rounded=1;whiteSpace=wrap;html=1;shadow=0;fillColor=#757575;strokeColor=none;movable=0;resizable=0;rotatable=0;deletable=0;editable=0;connectable=0;" vertex="1" parent="EPCD5kT5webkioDT2sl7-41">
          <mxGeometry width="50" height="50" as="geometry" />
        </mxCell>
        <mxCell id="EPCD5kT5webkioDT2sl7-43" value="" style="ellipse;whiteSpace=wrap;html=1;aspect=fixed;rounded=0;shadow=0;strokeColor=none;movable=1;resizable=1;rotatable=1;deletable=1;editable=1;connectable=1;" vertex="1" parent="EPCD5kT5webkioDT2sl7-41">
          <mxGeometry x="4.58" y="4.58" width="40.84" height="40.84" as="geometry" />
        </mxCell>
        <mxCell id="EPCD5kT5webkioDT2sl7-44" value="" style="ellipse;whiteSpace=wrap;html=1;aspect=fixed;rounded=0;shadow=0;fillColor=#757575;strokeColor=none;movable=1;resizable=1;rotatable=1;deletable=1;editable=1;connectable=1;direction=south;" vertex="1" parent="EPCD5kT5webkioDT2sl7-41">
          <mxGeometry x="11.15" y="11.15" width="27.69" height="27.69" as="geometry" />
        </mxCell>
      </root>
    </mxGraphModel>
  </diagram>
</mxfile>
